<?xml version="1.0" encoding="UTF-8" standalone="no"?>
<!-- Created with Inkscape (http://www.inkscape.org/) -->

<svg
   width="116.77963mm"
   height="116.77958mm"
   viewBox="0 0 116.77963 116.77958"
   version="1.1"
   id="svg1"
   xmlns="http://www.w3.org/2000/svg"
   xmlns:svg="http://www.w3.org/2000/svg">
  <defs
     id="defs1" />
  <g
     id="layer1"
     transform="translate(-231.67538,-170.86168)">
    <rect
       style="fill:#3b2dd2;fill-opacity:1;stroke:none;stroke-width:18.6871;stroke-linecap:round;stroke-linejoin:round;paint-order:stroke markers fill"
       id="rect1-4-2"
       width="116.77962"
       height="116.77958"
       x="231.6754"
       y="170.86168" />
    <path
       style="font-weight:bold;font-size:97.8495px;line-height:1.25;font-family:Roboto;-inkscape-font-specification:'Roboto Bold';text-align:center;text-anchor:middle;fill:#ffffff;stroke-width:0.509632"
       d="m 275.18107,193.01265 -20.58416,69.56488 h -14.33342 l 20.58416,-69.56488 z m 13.43036,27.14495 -3.30817,11.18007 h -31.62908 l 3.30817,-11.18007 z m 17.62539,-27.14495 -3.32231,11.22785 h -34.97355 l 3.32231,-11.22785 z"
       id="text1-0-4"
       aria-label="F" />
    <path
       style="font-weight:bold;font-size:50.8px;line-height:1.25;font-family:Roboto;-inkscape-font-specification:'Roboto Bold';text-align:center;text-anchor:middle;fill:#ffffff;stroke-width:0.264583"
       d="m 352.61059,256.99649 q 1.31465,0 2.33164,-0.49609 1.01699,-0.5209 1.5875,-1.43868 0.59531,-0.94257 0.62012,-2.20761 h 6.72207 q -0.0248,2.82773 -1.51309,5.03535 -1.48828,2.18281 -3.99355,3.44785 -2.50528,1.24024 -5.60586,1.24024 -3.12539,0 -5.45703,-1.0418 -2.30684,-1.0418 -3.84473,-2.87735 -1.53789,-1.86035 -2.30684,-4.31601 -0.76894,-2.48047 -0.76894,-5.3082 v -0.71934 q 0,-2.85254 0.76894,-5.3082 0.76895,-2.48047 2.30684,-4.31602 1.53789,-1.86035 3.84473,-2.90215 2.30683,-1.04179 5.40742,-1.04179 3.29902,0 5.77949,1.26504 2.50527,1.26503 3.91914,3.62148 1.43867,2.33164 1.46348,5.53144 h -6.72207 q -0.0248,-1.33945 -0.57051,-2.43085 -0.5209,-1.09141 -1.53789,-1.73633 -0.99219,-0.66973 -2.45566,-0.66973 -1.5627,0 -2.55489,0.66973 -0.99219,0.64492 -1.53789,1.78593 -0.5457,1.11622 -0.76894,2.55489 -0.19844,1.41386 -0.19844,2.97656 v 0.71934 q 0,1.56269 0.19844,3.00136 0.19843,1.43867 0.74414,2.55489 0.5705,1.11621 1.56269,1.76113 0.99219,0.64492 2.57969,0.64492 z m 29.86484,-0.96738 v -11.95586 q 0,-1.28985 -0.42168,-2.20762 -0.42168,-0.94258 -1.31465,-1.46348 -0.86816,-0.52089 -2.25722,-0.52089 -1.19063,0 -2.05879,0.42168 -0.86817,0.39687 -1.33945,1.16582 -0.47129,0.74414 -0.47129,1.76113 h -7.14375 q 0,-1.71152 0.79375,-3.24941 0.79375,-1.5379 2.30683,-2.70372 1.51309,-1.19062 3.59668,-1.86035 2.1084,-0.66972 4.71289,-0.66972 3.12539,0 5.55625,1.04179 2.43086,1.0418 3.81992,3.12539 1.41387,2.0836 1.41387,5.20899 v 11.48457 q 0,2.20762 0.27285,3.62148 0.27285,1.38906 0.79375,2.43086 v 0.42168 h -7.21816 q -0.5209,-1.0914 -0.79375,-2.72851 -0.24805,-1.66192 -0.24805,-3.32383 z m 0.94258,-10.29395 0.0496,4.04317 h -3.99355 q -1.41387,0 -2.45567,0.32246 -1.0418,0.32246 -1.71152,0.91777 -0.66973,0.57051 -0.99219,1.33945 -0.29766,0.76895 -0.29766,1.68672 0,0.91778 0.42168,1.66192 0.42168,0.71933 1.21543,1.14101 0.79375,0.39688 1.86036,0.39688 1.6123,0 2.80292,-0.64492 1.19063,-0.64493 1.83555,-1.5875 0.66973,-0.94258 0.69453,-1.78594 l 1.88516,3.02617 q -0.39688,1.01699 -1.09141,2.1084 -0.66972,1.0914 -1.71152,2.05879 -1.0418,0.94258 -2.50527,1.56269 -1.46348,0.59532 -3.47266,0.59532 -2.55488,0 -4.63848,-1.017 -2.05879,-1.04179 -3.27422,-2.85254 -1.19062,-1.83554 -1.19062,-4.16718 0,-2.1084 0.79375,-3.74551 0.79375,-1.63711 2.33164,-2.75332 1.5627,-1.14102 3.89434,-1.71152 2.33164,-0.59532 5.40742,-0.59532 z m 24.90391,-10.49238 v 5.06016 h -15.62696 v -5.06016 z m -11.75742,-6.62285 h 7.14375 v 25.37519 q 0,1.16582 0.29765,1.78594 0.32246,0.62012 0.94258,0.86816 0.62012,0.22325 1.5627,0.22325 0.66972,0 1.19062,-0.0496 0.5457,-0.0744 0.91777,-0.14883 l 0.0248,5.25859 q -0.91778,0.29766 -1.98438,0.47129 -1.0666,0.17364 -2.35644,0.17364 -2.35645,0 -4.11758,-0.76895 -1.73633,-0.79375 -2.67891,-2.53008 -0.94257,-1.73633 -0.94257,-4.56406 z"
       id="text1-3-5-7"
       transform="skewX(-16.483418)"
       aria-label="cat" />
  </g>
</svg>
